<?xml version="1.0" encoding="UTF-8" standalone="no"?><!DOCTYPE svg PUBLIC "-//W3C//DTD SVG 1.1//EN" "http://www.w3.org/Graphics/SVG/1.1/DTD/svg11.dtd"><svg width="100%" height="100%" viewBox="0 0 600 720" version="1.1" xmlns="http://www.w3.org/2000/svg" xmlns:xlink="http://www.w3.org/1999/xlink" xml:space="preserve" xmlns:serif="http://www.serif.com/" style="fill-rule:evenodd;clip-rule:evenodd;stroke-linecap:round;stroke-linejoin:round;stroke-miterlimit:1.5;"><rect x="0" y="0" width="600" height="720" style="fill:#fff;"/><path d="M545.097,66.453c0,-2.909 -1.156,-5.7 -3.213,-7.757c-2.057,-2.057 -4.847,-3.212 -7.757,-3.212c-65.364,0 -402.89,0 -468.254,0c-2.91,0 -5.7,1.155 -7.757,3.212c-2.057,2.057 -3.213,4.848 -3.213,7.757c0,70.479 0,458.933 0,529.413c0,2.909 1.156,5.699 3.213,7.756c2.057,2.057 4.847,3.213 7.757,3.213c65.364,0 402.89,0 468.254,0c2.91,0 5.7,-1.156 7.757,-3.213c2.057,-2.057 3.213,-4.847 3.213,-7.756c0,-70.48 0,-458.934 0,-529.413Z" style="fill:#fff;stroke:#dbdcdf;stroke-width:6px;"/><rect x="55.307" y="640" width="122.16" height="20" style="fill:#dbdcdf;"/><rect x="327.085" y="640" width="39.31" height="20" style="fill:#dbdcdf;"/><rect x="391.667" y="640" width="80.608" height="20" style="fill:#dbdcdf;"/><rect x="497.33" y="640" width="47.363" height="20" style="fill:#dbdcdf;"/><path d="M495.184,311.47c0,-1.458 -0.579,-2.856 -1.61,-3.887c-1.031,-1.031 -2.429,-1.61 -3.887,-1.61c-43.793,0 -335.581,0 -379.374,0c-1.458,0 -2.856,0.579 -3.887,1.61c-1.031,1.031 -1.61,2.429 -1.61,3.887c0,13.803 0,49.797 0,63.599c0,1.458 0.579,2.857 1.61,3.887c1.031,1.031 2.429,1.611 3.887,1.611c43.793,0 335.581,0 379.374,0c1.458,0 2.856,-0.58 3.887,-1.611c1.031,-1.03 1.61,-2.429 1.61,-3.887c0,-13.802 0,-49.796 0,-63.599Z" style="fill:none;stroke:#1a73e8;stroke-width:5px;"/><rect x="104.984" y="404.422" width="154.066" height="30" style="fill:#d7e4f4;"/><rect x="115.743" y="297.199" width="103.5" height="17.549" style="fill:#fff;"/><rect x="127.188" y="298.473" width="80.608" height="15" style="fill:#d7e4f4;"/><rect x="104.816" y="510.266" width="102.813" height="30" style="fill:#d7e4f4;"/><path d="M495.184,498.17c0,-1.193 -0.474,-2.337 -1.317,-3.18c-0.844,-0.844 -1.988,-1.318 -3.181,-1.318c-20.554,0 -105.429,0 -125.983,0c-1.193,0 -2.337,0.474 -3.181,1.318c-0.843,0.843 -1.317,1.987 -1.317,3.18c0,11.625 0,42.567 0,54.191c0,1.193 0.474,2.337 1.317,3.181c0.844,0.843 1.988,1.317 3.181,1.317c20.554,0 105.429,0 125.983,0c1.193,0 2.337,-0.474 3.181,-1.317c0.843,-0.844 1.317,-1.988 1.317,-3.181c0,-11.624 0,-42.566 0,-54.191Z" style="fill:#1a73e8;"/><rect x="127.188" y="326.921" width="2" height="32.697" style="fill:#1a73e8;"/><g><path d="M271.381,100.162l57.238,0l-28.619,67.643l-28.619,-67.643Z" style="fill:#1697f6;fill-rule:nonzero;"/><clipPath id="_clip1"><path d="M271.381,100.162l57.238,0l-28.619,67.643l-28.619,-67.643Z" clip-rule="nonzero"/></clipPath><g clip-path="url(#_clip1)"><rect x="300" y="88.717" width="28.619" height="83.749" style="fill:#7ac5ff;"/></g><path d="M238.749,120.578l32.085,0l29.166,67.082l29.166,-67.082l32.085,0l-61.251,119.584l-61.251,-119.584Z" style="fill:#7ac5ff;fill-rule:nonzero;"/><clipPath id="_clip2"><path d="M238.749,120.578l32.085,0l29.166,67.082l29.166,-67.082l32.085,0l-61.251,119.584l-61.251,-119.584Z" clip-rule="nonzero"/></clipPath><g clip-path="url(#_clip2)"><rect x="300" y="88.717" width="61.251" height="155.47" style="fill:#acdbfe;"/></g></g></svg>